<svg xmlns="http://www.w3.org/2000/svg" xmlns:xlink="http://www.w3.org/1999/xlink" width="500" zoomAndPan="magnify" viewBox="0 0 375 374.999991" height="500" preserveAspectRatio="xMidYMid meet" version="1.0"><defs><clipPath id="191e75fab4"><path d="M 196 222 L 345 222 L 345 356.25 L 196 356.25 Z M 196 222 " clip-rule="nonzero"/></clipPath></defs><path fill="#000000" d="M 248.839844 178.738281 L 318.613281 136.144531 L 349.878906 197.71875 C 357.429688 231.359375 316.046875 243.707031 282.820312 241.695312 L 248.835938 178.738281 Z M 248.839844 178.738281 " fill-opacity="1" fill-rule="evenodd"/><g clip-path="url(#191e75fab4)"><path fill="#000000" d="M 232.984375 222.71875 L 196.28125 288.917969 L 232.984375 356.042969 L 233.890625 329.191406 L 267.417969 329.191406 C 279.652344 330.273438 295.511719 322.09375 301.402344 310.210938 L 344.449219 229.660156 C 330.25 244.011719 311.996094 247.714844 290.984375 247.714844 L 234.347656 247.714844 L 232.988281 222.714844 Z M 232.984375 222.71875 " fill-opacity="1" fill-rule="evenodd"/></g><path fill="#000000" d="M 150.980469 141.097656 L 80.667969 99.4375 L 118.179688 41.625 C 143.300781 18.550781 173.953125 49.527344 188.363281 80.183594 Z M 150.980469 141.097656 " fill-opacity="1" fill-rule="evenodd"/><path fill="#000000" d="M 196.3125 133.917969 L 270.777344 134.570312 L 310.402344 69.203125 L 286.988281 81.425781 L 270.710938 51.476562 C 265.699219 40.023438 251.003906 29.824219 237.976562 30.332031 L 148.152344 30.980469 C 167.324219 36.695312 179.351562 51.207031 189.550781 69.976562 L 217.042969 120.570312 L 196.308594 133.917969 Z M 196.3125 133.917969 " fill-opacity="1" fill-rule="evenodd"/><path fill="#000000" d="M 26.859375 137.648438 L 48.648438 154.671875 L 28.140625 193.953125 C 17.890625 212.066406 35.503906 229.710938 46.726562 235.851562 C 57.773438 241.898438 74.917969 242.617188 90.9375 242.398438 L 119.773438 195.261719 L 141.5625 207.046875 L 103.753906 136.992188 L 26.863281 137.648438 Z M 26.859375 137.648438 " fill-opacity="1" fill-rule="evenodd"/><path fill="#000000" d="M 30.066406 228.652344 L 76.839844 315.074219 C 86.238281 327.078125 103.964844 329.914062 122.335938 329.476562 L 171.675781 329.476562 L 171.675781 247.636719 L 78.121094 246.984375 C 63.597656 247.855469 44.589844 244.800781 30.066406 228.652344 Z M 30.066406 228.652344 " fill-opacity="1" fill-rule="evenodd"/></svg>