<svg xmlns="http://www.w3.org/2000/svg" xmlns:xlink="http://www.w3.org/1999/xlink" width="500" zoomAndPan="magnify" viewBox="0 0 375 374.999991" height="500" preserveAspectRatio="xMidYMid meet" version="1.0"><defs><clipPath id="228a1fcc0c"><path d="M 18.75 60.9375 L 356.25 60.9375 L 356.25 314.4375 L 18.75 314.4375 Z M 18.75 60.9375 " clip-rule="nonzero"/></clipPath></defs><g clip-path="url(#228a1fcc0c)"><path fill="#000000" d="M 356.242188 60.941406 L 356.242188 277.484375 C 356.242188 298.558594 340.839844 314.433594 321.585938 314.433594 L 64.601562 314.433594 C 32.8125 314.433594 18.75 300.796875 18.75 260.445312 L 18.75 104.886719 L 63.257812 104.886719 L 63.257812 60.945312 L 356.230469 60.945312 Z M 63.269531 126.144531 L 39.988281 126.144531 L 39.988281 260.441406 C 39.988281 281.066406 44.914062 290.929688 51.179688 290.929688 C 58.792969 290.929688 63.269531 281.066406 63.269531 260.441406 Z M 335.019531 82.203125 L 84.492188 82.203125 L 84.492188 260.4375 C 84.492188 274.785156 81.804688 285.097656 77.773438 293.167969 L 321.59375 293.167969 C 329.652344 293.167969 335.027344 283.753906 335.027344 277.476562 Z M 182.800781 170.339844 L 120.667969 170.339844 L 120.667969 162.269531 L 182.800781 162.269531 Z M 182.800781 196.792969 L 120.667969 196.792969 L 120.667969 188.722656 L 182.800781 188.722656 Z M 182.800781 222.351562 L 120.667969 222.351562 L 120.667969 214.28125 L 182.800781 214.28125 Z M 182.800781 247.011719 L 120.667969 247.011719 L 120.667969 238.941406 L 182.800781 238.941406 Z M 134.449219 120.574219 L 283.535156 120.574219 L 283.535156 135.523438 L 134.449219 135.523438 Z M 205.1875 162.269531 L 300.542969 162.269531 L 300.542969 238.527344 L 205.1875 238.527344 Z M 205.1875 162.269531 " fill-opacity="1" fill-rule="nonzero"/></g></svg>