<svg xmlns="http://www.w3.org/2000/svg" xmlns:xlink="http://www.w3.org/1999/xlink" width="500" zoomAndPan="magnify" viewBox="0 0 375 374.999991" height="500" preserveAspectRatio="xMidYMid meet" version="1.0"><defs><clipPath id="85f9c524f1"><path d="M 69.183594 254 L 306.183594 254 L 306.183594 358 L 69.183594 358 Z M 69.183594 254 " clip-rule="nonzero"/></clipPath></defs><path fill="#000000" d="M 252.953125 49.914062 C 251.765625 48.9375 250.554688 47.992188 249.324219 47.070312 C 248.09375 46.148438 246.84375 45.253906 245.570312 44.390625 C 244.300781 43.527344 243.011719 42.6875 241.703125 41.882812 C 240.394531 41.074219 239.066406 40.296875 237.722656 39.550781 C 236.378906 38.800781 235.019531 38.085938 233.644531 37.398438 C 232.265625 36.710938 230.875 36.054688 229.46875 35.433594 C 228.066406 34.808594 226.644531 34.214844 225.214844 33.65625 C 223.78125 33.09375 222.335938 32.566406 220.878906 32.070312 C 219.425781 31.574219 217.957031 31.113281 216.480469 30.683594 C 215.003906 30.25 213.519531 29.855469 212.023438 29.492188 C 210.527344 29.128906 209.027344 28.796875 207.515625 28.503906 C 206.007812 28.207031 204.492188 27.945312 202.96875 27.71875 C 201.449219 27.488281 199.921875 27.296875 198.394531 27.136719 C 196.863281 26.976562 195.328125 26.851562 193.792969 26.761719 C 192.257812 26.667969 190.722656 26.613281 189.183594 26.589844 C 187.644531 26.570312 186.105469 26.582031 184.570312 26.628906 C 183.03125 26.675781 181.496094 26.757812 179.960938 26.875 C 178.425781 26.988281 176.894531 27.140625 175.367188 27.324219 C 173.839844 27.511719 172.320312 27.730469 170.800781 27.980469 C 169.285156 28.234375 167.773438 28.523438 166.269531 28.84375 C 164.761719 29.164062 163.265625 29.519531 161.777344 29.90625 C 160.289062 30.292969 158.8125 30.714844 157.339844 31.167969 C 155.871094 31.625 154.414062 32.109375 152.964844 32.628906 C 151.515625 33.148438 150.082031 33.703125 148.660156 34.285156 C 147.238281 34.871094 145.828125 35.484375 144.433594 36.132812 C 143.039062 36.78125 141.65625 37.457031 140.292969 38.167969 C 138.929688 38.878906 137.582031 39.617188 136.25 40.386719 C 134.917969 41.15625 133.605469 41.953125 132.308594 42.785156 C 131.011719 43.613281 129.738281 44.46875 128.480469 45.355469 C 127.222656 46.242188 125.988281 47.15625 124.773438 48.097656 C 123.558594 49.039062 122.363281 50.003906 121.191406 51 C 120.019531 51.996094 118.871094 53.015625 117.742188 54.0625 C 116.617188 55.109375 115.515625 56.179688 114.4375 57.273438 C 113.359375 58.371094 112.308594 59.492188 111.28125 60.632812 C 110.253906 61.777344 109.25 62.941406 108.277344 64.128906 C 107.300781 65.316406 106.355469 66.527344 105.433594 67.757812 C 104.511719 68.988281 103.621094 70.238281 102.757812 71.507812 C 101.890625 72.78125 101.058594 74.070312 100.25 75.375 C 99.445312 76.683594 98.667969 78.011719 97.921875 79.351562 C 97.175781 80.695312 96.460938 82.054688 95.773438 83.429688 C 95.089844 84.804688 94.433594 86.195312 93.8125 87.597656 C 93.1875 89.003906 92.597656 90.417969 92.039062 91.851562 C 91.480469 93.28125 90.953125 94.722656 90.460938 96.179688 C 89.964844 97.632812 89.503906 99.097656 89.078125 100.570312 C 88.648438 102.046875 88.253906 103.53125 87.894531 105.023438 C 87.53125 106.515625 87.203125 108.015625 86.910156 109.523438 C 86.617188 111.03125 86.359375 112.542969 86.132812 114.0625 C 85.90625 115.582031 85.714844 117.105469 85.558594 118.632812 C 85.402344 120.160156 85.28125 121.691406 85.191406 123.226562 C 85.101562 124.757812 85.050781 126.292969 85.03125 127.828125 C 85.011719 129.363281 85.027344 130.898438 85.078125 132.433594 C 85.128906 133.96875 85.210938 135.5 85.332031 137.03125 C 85.449219 138.5625 85.605469 140.089844 85.792969 141.613281 C 85.980469 143.140625 86.203125 144.660156 86.457031 146.171875 C 86.714844 147.6875 87.003906 149.195312 87.328125 150.695312 C 87.652344 152.195312 88.011719 153.691406 88.402344 155.175781 C 88.796875 156.660156 89.21875 158.136719 89.675781 159.601562 C 90.136719 161.066406 90.625 162.523438 91.148438 163.964844 C 91.671875 165.410156 92.230469 166.84375 92.816406 168.261719 C 93.40625 169.679688 94.023438 171.085938 94.675781 172.476562 C 95.328125 173.867188 96.007812 175.246094 96.722656 176.605469 C 97.433594 177.964844 98.179688 179.308594 98.953125 180.636719 C 99.726562 181.964844 100.527344 183.273438 101.359375 184.566406 C 102.195312 185.855469 103.054688 187.128906 103.945312 188.382812 L 109.507812 196.1875 C 124.453125 217.148438 139.921875 238.769531 153.605469 261.003906 C 159.214844 270.042969 164.523438 279.222656 169.671875 288.558594 L 180.734375 308.585938 C 181.070312 309.199219 181.480469 309.753906 181.964844 310.257812 C 182.449219 310.757812 182.992188 311.191406 183.59375 311.550781 C 184.191406 311.90625 184.828125 312.183594 185.5 312.371094 C 186.171875 312.5625 186.859375 312.664062 187.558594 312.671875 L 187.683594 312.671875 C 188.375 312.671875 189.054688 312.582031 189.722656 312.40625 C 190.386719 312.226562 191.019531 311.96875 191.621094 311.625 C 192.21875 311.28125 192.761719 310.867188 193.253906 310.382812 C 193.742188 309.894531 194.164062 309.355469 194.511719 308.757812 L 196.832031 304.785156 C 204.449219 290.890625 212.855469 276.570312 222.507812 261.039062 C 239.570312 233.941406 257.851562 207.714844 271.914062 187.84375 C 272.828125 186.539062 273.710938 185.210938 274.558594 183.859375 C 275.410156 182.511719 276.230469 181.144531 277.015625 179.757812 C 277.804688 178.371094 278.558594 176.964844 279.28125 175.542969 C 280.003906 174.121094 280.691406 172.683594 281.34375 171.230469 C 282 169.777344 282.621094 168.308594 283.207031 166.828125 C 283.792969 165.34375 284.34375 163.847656 284.859375 162.339844 C 285.375 160.832031 285.855469 159.3125 286.300781 157.78125 C 286.746094 156.25 287.15625 154.710938 287.53125 153.160156 C 287.902344 151.613281 288.242188 150.054688 288.542969 148.488281 C 288.84375 146.921875 289.105469 145.351562 289.335938 143.773438 C 289.5625 142.195312 289.753906 140.613281 289.90625 139.027344 C 290.058594 137.441406 290.175781 135.851562 290.257812 134.261719 C 290.335938 132.667969 290.378906 131.074219 290.382812 129.480469 C 290.390625 127.886719 290.355469 126.292969 290.289062 124.703125 C 290.21875 123.109375 290.113281 121.519531 289.96875 119.933594 C 289.828125 118.34375 289.648438 116.761719 289.429688 115.183594 C 289.210938 113.605469 288.957031 112.03125 288.667969 110.464844 C 288.378906 108.894531 288.050781 107.335938 287.6875 105.785156 C 287.324219 104.230469 286.925781 102.6875 286.488281 101.15625 C 286.054688 99.621094 285.585938 98.097656 285.078125 96.589844 C 284.570312 95.078125 284.03125 93.578125 283.453125 92.089844 C 282.878906 90.605469 282.269531 89.132812 281.621094 87.671875 C 280.976562 86.214844 280.300781 84.773438 279.585938 83.347656 C 278.875 81.921875 278.128906 80.511719 277.351562 79.117188 C 276.574219 77.726562 275.765625 76.355469 274.921875 75 C 274.082031 73.644531 273.207031 72.3125 272.304688 70.996094 C 271.398438 69.683594 270.464844 68.390625 269.5 67.121094 C 268.535156 65.851562 267.542969 64.605469 266.519531 63.378906 C 265.496094 62.15625 264.445312 60.957031 263.367188 59.78125 C 262.289062 58.605469 261.183594 57.457031 260.050781 56.332031 C 258.917969 55.207031 257.761719 54.109375 256.578125 53.039062 C 255.394531 51.96875 254.1875 50.929688 252.953125 49.914062 Z M 187.683594 177.53125 C 186.09375 177.53125 184.511719 177.453125 182.929688 177.296875 C 181.347656 177.144531 179.777344 176.910156 178.21875 176.601562 C 176.660156 176.292969 175.121094 175.90625 173.597656 175.445312 C 172.078125 174.984375 170.585938 174.453125 169.117188 173.84375 C 167.648438 173.238281 166.214844 172.558594 164.8125 171.8125 C 163.410156 171.066406 162.046875 170.25 160.726562 169.367188 C 159.40625 168.488281 158.132812 167.542969 156.902344 166.539062 C 155.675781 165.53125 154.5 164.46875 153.375 163.347656 C 152.25 162.222656 151.183594 161.050781 150.175781 159.824219 C 149.167969 158.597656 148.222656 157.324219 147.339844 156.007812 C 146.457031 154.6875 145.640625 153.328125 144.890625 151.929688 C 144.144531 150.53125 143.464844 149.097656 142.855469 147.632812 C 142.25 146.167969 141.714844 144.675781 141.253906 143.160156 C 140.789062 141.640625 140.40625 140.105469 140.09375 138.546875 C 139.785156 136.992188 139.550781 135.425781 139.398438 133.847656 C 139.242188 132.269531 139.164062 130.683594 139.164062 129.097656 C 139.164062 127.511719 139.242188 125.929688 139.394531 124.351562 C 139.550781 122.773438 139.785156 121.207031 140.09375 119.652344 C 140.40625 118.09375 140.789062 116.558594 141.253906 115.039062 C 141.714844 113.523438 142.25 112.03125 142.855469 110.566406 C 143.464844 109.101562 144.144531 107.667969 144.890625 106.269531 C 145.640625 104.871094 146.457031 103.511719 147.339844 102.191406 C 148.222656 100.875 149.167969 99.601562 150.175781 98.375 C 151.183594 97.148438 152.25 95.972656 153.375 94.851562 C 154.5 93.730469 155.675781 92.667969 156.902344 91.660156 C 158.132812 90.65625 159.40625 89.710938 160.726562 88.828125 C 162.046875 87.949219 163.410156 87.132812 164.8125 86.386719 C 166.214844 85.636719 167.648438 84.960938 169.117188 84.355469 C 170.585938 83.746094 172.078125 83.214844 173.597656 82.753906 C 175.121094 82.292969 176.660156 81.90625 178.21875 81.597656 C 179.777344 81.289062 181.347656 81.054688 182.929688 80.902344 C 184.511719 80.746094 186.09375 80.667969 187.683594 80.667969 C 189.273438 80.667969 190.859375 80.746094 192.441406 80.902344 C 194.023438 81.054688 195.59375 81.289062 197.152344 81.597656 C 198.710938 81.90625 200.25 82.292969 201.769531 82.753906 C 203.289062 83.214844 204.785156 83.746094 206.253906 84.355469 C 207.722656 84.960938 209.15625 85.636719 210.558594 86.386719 C 211.960938 87.132812 213.320312 87.949219 214.640625 88.828125 C 215.964844 89.710938 217.238281 90.65625 218.464844 91.660156 C 219.695312 92.667969 220.871094 93.730469 221.996094 94.851562 C 223.117188 95.972656 224.183594 97.148438 225.191406 98.375 C 226.199219 99.601562 227.144531 100.875 228.027344 102.191406 C 228.910156 103.511719 229.726562 104.871094 230.476562 106.269531 C 231.226562 107.667969 231.90625 109.101562 232.511719 110.566406 C 233.121094 112.03125 233.65625 113.523438 234.117188 115.039062 C 234.578125 116.558594 234.964844 118.09375 235.273438 119.652344 C 235.585938 121.207031 235.816406 122.773438 235.972656 124.351562 C 236.128906 125.929688 236.207031 127.511719 236.207031 129.097656 C 236.203125 130.683594 236.125 132.265625 235.96875 133.84375 C 235.808594 135.421875 235.574219 136.988281 235.261719 138.542969 C 234.953125 140.097656 234.566406 141.632812 234.101562 143.152344 C 233.640625 144.667969 233.105469 146.160156 232.496094 147.625 C 231.886719 149.089844 231.207031 150.519531 230.457031 151.917969 C 229.707031 153.316406 228.894531 154.671875 228.007812 155.992188 C 227.125 157.308594 226.179688 158.582031 225.171875 159.808594 C 224.164062 161.03125 223.097656 162.207031 221.976562 163.328125 C 220.851562 164.449219 219.675781 165.511719 218.449219 166.519531 C 217.222656 167.523438 215.949219 168.46875 214.628906 169.351562 C 213.304688 170.230469 211.945312 171.046875 210.546875 171.792969 C 209.144531 172.542969 207.710938 173.21875 206.242188 173.828125 C 204.777344 174.433594 203.28125 174.96875 201.761719 175.433594 C 200.242188 175.894531 198.703125 176.28125 197.144531 176.589844 C 195.589844 176.902344 194.019531 177.136719 192.4375 177.292969 C 190.859375 177.449219 189.273438 177.527344 187.683594 177.53125 Z M 187.683594 177.53125 " fill-opacity="1" fill-rule="nonzero"/><g clip-path="url(#85f9c524f1)"><path fill="#000000" d="M 245.640625 254.304688 C 242.367188 259.316406 239.097656 264.332031 235.875 269.425781 C 226.394531 284.695312 218.148438 298.761719 210.6875 312.371094 L 208.226562 316.769531 C 207.175781 318.558594 205.910156 320.179688 204.433594 321.640625 C 202.960938 323.097656 201.320312 324.339844 199.519531 325.371094 C 197.71875 326.402344 195.816406 327.183594 193.808594 327.71875 C 191.800781 328.253906 189.761719 328.519531 187.683594 328.519531 L 187.589844 328.519531 C 186.539062 328.511719 185.492188 328.433594 184.453125 328.289062 C 183.414062 328.144531 182.386719 327.929688 181.375 327.648438 C 180.359375 327.367188 179.371094 327.019531 178.40625 326.609375 C 177.4375 326.195312 176.503906 325.722656 175.601562 325.1875 C 174.695312 324.652344 173.832031 324.0625 173.007812 323.410156 C 172.179688 322.761719 171.402344 322.0625 170.667969 321.308594 C 169.9375 320.558594 169.257812 319.761719 168.628906 318.917969 C 168.003906 318.078125 167.433594 317.199219 166.921875 316.28125 L 155.863281 296.253906 C 150.839844 287.136719 145.671875 278.195312 140.207031 269.441406 C 137.046875 264.363281 133.601562 259.382812 130.300781 254.351562 C 92.882812 263.433594 69.183594 281.367188 69.183594 302.578125 C 69.183594 334.117188 120.125 357.773438 187.683594 357.773438 C 255.246094 357.773438 306.183594 334.117188 306.183594 302.578125 C 306.183594 281.507812 282.644531 263.609375 245.640625 254.304688 Z M 245.640625 254.304688 " fill-opacity="1" fill-rule="nonzero"/></g></svg>