<svg xmlns="http://www.w3.org/2000/svg" xmlns:xlink="http://www.w3.org/1999/xlink" width="500" zoomAndPan="magnify" viewBox="0 0 375 374.999991" height="500" preserveAspectRatio="xMidYMid meet" version="1.0"><defs><clipPath id="43141ecf31"><path d="M 279 291 L 332 291 L 332 343.40625 L 279 343.40625 Z M 279 291 " clip-rule="nonzero"/></clipPath><clipPath id="28f967a164"><path d="M 249 261 L 332 261 L 332 343.40625 L 249 343.40625 Z M 249 261 " clip-rule="nonzero"/></clipPath><clipPath id="e22294d9b6"><path d="M 114 205 L 332 205 L 332 343.40625 L 114 343.40625 Z M 114 205 " clip-rule="nonzero"/></clipPath><clipPath id="d55751a8c0"><path d="M 29 202 L 106 202 L 106 343.40625 L 29 343.40625 Z M 29 202 " clip-rule="nonzero"/></clipPath><clipPath id="a8280ede9b"><path d="M 119 197 L 367.792969 197 L 367.792969 224 L 119 224 Z M 119 197 " clip-rule="nonzero"/></clipPath><clipPath id="d435ba8633"><path d="M 7.042969 197 L 96 197 L 96 208 L 7.042969 208 Z M 7.042969 197 " clip-rule="nonzero"/></clipPath><clipPath id="fedb86c6ef"><path d="M 109 31.40625 L 326 31.40625 L 326 188 L 109 188 Z M 109 31.40625 " clip-rule="nonzero"/></clipPath></defs><g clip-path="url(#43141ecf31)"><path fill="#000000" d="M 331.601562 291.792969 L 279.980469 343.40625 L 331.601562 343.40625 Z M 331.601562 291.792969 " fill-opacity="1" fill-rule="evenodd"/></g><g clip-path="url(#28f967a164)"><path fill="#000000" d="M 266.863281 343.40625 L 331.601562 278.679688 L 331.601562 261.757812 L 249.9375 343.40625 Z M 266.863281 343.40625 " fill-opacity="1" fill-rule="evenodd"/></g><path fill="#000000" d="M 202.125 300.464844 C 214.605469 293.273438 219.894531 289.890625 219.894531 279.3125 C 219.894531 269.796875 211.855469 261.757812 201.910156 261.757812 C 193.449219 261.757812 189.007812 265.351562 183.507812 275.929688 C 182.660156 277.410156 181.179688 278.46875 179.484375 278.46875 C 177.582031 278.46875 176.101562 277.410156 175.253906 275.929688 C 169.753906 265.351562 165.3125 261.757812 156.847656 261.757812 C 146.90625 261.757812 138.867188 269.796875 138.867188 279.3125 C 138.867188 289.890625 144.367188 293.273438 156.636719 300.464844 C 163.195312 304.273438 171.234375 308.925781 179.484375 316.332031 C 187.527344 308.925781 195.566406 304.273438 202.125 300.464844 Z M 202.125 300.464844 " fill-opacity="1" fill-rule="evenodd"/><g clip-path="url(#e22294d9b6)"><path fill="#000000" d="M 229.203125 279.3125 C 229.203125 295.601562 218.835938 301.523438 206.777344 308.503906 C 199.375 312.734375 191.121094 317.601562 182.660156 325.847656 C 181.8125 326.90625 180.542969 327.332031 179.484375 327.332031 C 178.214844 327.332031 176.949219 326.90625 176.101562 325.847656 C 167.636719 317.601562 159.386719 312.734375 151.984375 308.503906 C 139.925781 301.523438 129.558594 295.601562 129.558594 279.3125 C 129.558594 264.507812 141.828125 252.449219 156.847656 252.449219 C 167.636719 252.449219 174.195312 257.105469 179.484375 264.71875 C 184.5625 257.105469 191.121094 252.449219 201.910156 252.449219 C 216.933594 252.449219 229.203125 264.507812 229.203125 279.3125 Z M 144.15625 233.203125 Z M 236.820312 343.40625 L 331.601562 248.644531 L 331.601562 230.453125 L 144.15625 233.203125 C 142.886719 233.203125 141.617188 232.566406 140.769531 231.722656 L 114.535156 205.070312 L 114.535156 343.40625 Z M 236.820312 343.40625 " fill-opacity="1" fill-rule="evenodd"/></g><g clip-path="url(#d55751a8c0)"><path fill="#000000" d="M 90.628906 211.203125 Z M 90.628906 211.414062 Z M 90.417969 211.414062 Z M 90.207031 211.414062 Z M 89.996094 211.625 Z M 89.785156 211.835938 Z M 89.785156 211.835938 Z M 89.570312 211.835938 Z M 89.359375 212.050781 Z M 89.148438 212.261719 Z M 88.726562 212.472656 Z M 88.515625 212.472656 Z M 86.398438 213.742188 Z M 83.011719 215.855469 Z M 83.011719 215.855469 Z M 83.011719 215.855469 Z M 82.800781 215.855469 Z M 82.800781 216.066406 Z M 82.800781 216.066406 Z M 82.800781 216.066406 Z M 82.800781 216.066406 Z M 82.800781 216.066406 Z M 82.589844 216.066406 Z M 82.589844 216.066406 Z M 82.589844 216.066406 Z M 82.589844 216.066406 Z M 82.589844 216.066406 Z M 82.378906 216.066406 Z M 82.378906 216.066406 Z M 82.378906 216.066406 Z M 105.226562 343.40625 L 105.226562 202.320312 C 102.054688 204.433594 98.246094 206.761719 93.589844 209.511719 L 93.378906 209.511719 L 92.746094 210.144531 L 92.320312 210.144531 L 92.109375 210.355469 L 91.6875 210.78125 L 91.265625 210.78125 L 91.054688 210.992188 L 90.839844 211.203125 L 90.628906 211.203125 L 90.628906 211.414062 L 90.207031 211.414062 L 90.207031 211.625 L 89.996094 211.625 L 89.785156 211.835938 L 89.570312 211.835938 L 89.359375 212.050781 L 89.148438 212.261719 L 88.726562 212.472656 L 88.515625 212.472656 L 86.398438 213.742188 C 85.128906 214.585938 84.28125 215.222656 83.4375 215.644531 L 83.011719 215.855469 L 82.800781 216.066406 L 82.378906 216.066406 C 81.957031 216.28125 81.320312 216.492188 80.898438 216.492188 L 29.699219 216.492188 L 29.699219 343.40625 Z M 105.226562 343.40625 " fill-opacity="1" fill-rule="evenodd"/></g><g clip-path="url(#a8280ede9b)"><path fill="#000000" d="M 146.058594 223.894531 L 367.777344 220.511719 L 345.773438 197.242188 L 119.824219 197.242188 Z M 146.058594 223.894531 " fill-opacity="1" fill-rule="evenodd"/></g><g clip-path="url(#d435ba8633)"><path fill="#000000" d="M 90.839844 200.203125 Z M 91.898438 199.78125 L 92.320312 199.355469 L 95.285156 197.453125 L 22.507812 197.03125 L 7.0625 207.183594 L 79.628906 207.183594 C 83.648438 204.644531 87.667969 202.105469 91.898438 199.78125 Z M 91.898438 199.78125 " fill-opacity="1" fill-rule="evenodd"/></g><g clip-path="url(#fedb86c6ef)"><path fill="#000000" d="M 159.175781 118.132812 L 159.175781 187.933594 L 276.171875 187.933594 L 276.171875 118.132812 C 276.171875 116.441406 277.226562 114.957031 278.710938 114.113281 C 280.191406 113.265625 281.882812 113.265625 283.363281 114.324219 L 307.480469 129.976562 L 325.464844 81.539062 C 317.847656 73.078125 288.863281 41.984375 275.746094 34.15625 C 273.632812 32.886719 269.1875 31.40625 260.304688 31.40625 C 256.707031 31.40625 252.476562 31.617188 247.820312 32.039062 L 221.375 64.617188 C 220.53125 65.671875 219.046875 66.308594 217.777344 66.308594 C 216.296875 66.308594 215.027344 65.671875 214.183594 64.617188 L 187.527344 32.039062 C 183.082031 31.617188 178.851562 31.40625 175.042969 31.40625 C 166.15625 31.40625 161.714844 32.886719 159.597656 34.15625 C 146.695312 41.984375 117.710938 73.078125 109.882812 81.539062 L 128.078125 129.976562 L 151.984375 114.324219 C 153.464844 113.265625 155.367188 113.265625 156.847656 114.113281 C 158.328125 114.957031 159.175781 116.441406 159.175781 118.132812 Z M 159.175781 118.132812 " fill-opacity="1" fill-rule="evenodd"/></g></svg>