<svg xmlns="http://www.w3.org/2000/svg" xmlns:xlink="http://www.w3.org/1999/xlink" width="400" zoomAndPan="magnify" viewBox="0 0 300 149.999998" height="200" preserveAspectRatio="xMidYMid meet" version="1.0"><defs><g/><clipPath id="0335e07be3"><path d="M 36 64 L 299.609375 64 L 299.609375 133 L 36 133 Z M 36 64 " clip-rule="nonzero"/></clipPath><clipPath id="0b5144f98d"><path d="M 172 5.199219 L 207 5.199219 L 207 52 L 172 52 Z M 172 5.199219 " clip-rule="nonzero"/></clipPath></defs><g fill="#000000" fill-opacity="1"><g transform="translate(-0.144496, 134.811781)"><g><path d="M 10.6875 0.234375 C 8.945312 0.234375 7.390625 -0.046875 6.015625 -0.609375 C 4.640625 -1.171875 3.539062 -2.003906 2.71875 -3.109375 C 1.894531 -4.210938 1.460938 -5.539062 1.421875 -7.09375 L 7.578125 -7.09375 C 7.660156 -6.21875 7.960938 -5.546875 8.484375 -5.078125 C 9.003906 -4.617188 9.679688 -4.390625 10.515625 -4.390625 C 11.367188 -4.390625 12.039062 -4.585938 12.53125 -4.984375 C 13.03125 -5.378906 13.28125 -5.925781 13.28125 -6.625 C 13.28125 -7.207031 13.082031 -7.691406 12.6875 -8.078125 C 12.300781 -8.460938 11.816406 -8.78125 11.234375 -9.03125 C 10.660156 -9.28125 9.847656 -9.5625 8.796875 -9.875 C 7.253906 -10.34375 6 -10.8125 5.03125 -11.28125 C 4.0625 -11.757812 3.226562 -12.460938 2.53125 -13.390625 C 1.832031 -14.316406 1.484375 -15.519531 1.484375 -17 C 1.484375 -19.21875 2.285156 -20.953125 3.890625 -22.203125 C 5.492188 -23.453125 7.578125 -24.078125 10.140625 -24.078125 C 12.753906 -24.078125 14.863281 -23.453125 16.46875 -22.203125 C 18.070312 -20.953125 18.925781 -19.207031 19.03125 -16.96875 L 12.78125 -16.96875 C 12.738281 -17.738281 12.457031 -18.34375 11.9375 -18.78125 C 11.414062 -19.21875 10.75 -19.4375 9.9375 -19.4375 C 9.238281 -19.4375 8.675781 -19.25 8.25 -18.875 C 7.820312 -18.507812 7.609375 -17.976562 7.609375 -17.28125 C 7.609375 -16.507812 7.96875 -15.910156 8.6875 -15.484375 C 9.40625 -15.054688 10.535156 -14.59375 12.078125 -14.09375 C 13.609375 -13.582031 14.851562 -13.085938 15.8125 -12.609375 C 16.769531 -12.140625 17.597656 -11.453125 18.296875 -10.546875 C 18.992188 -9.648438 19.34375 -8.488281 19.34375 -7.0625 C 19.34375 -5.707031 19 -4.476562 18.3125 -3.375 C 17.625 -2.269531 16.625 -1.390625 15.3125 -0.734375 C 14.007812 -0.0859375 12.46875 0.234375 10.6875 0.234375 Z M 10.6875 0.234375 "/></g></g></g><g fill="#000000" fill-opacity="1"><g transform="translate(20.637522, 134.811781)"><g><path d="M 19.875 -9.734375 C 19.875 -9.191406 19.84375 -8.628906 19.78125 -8.046875 L 6.6875 -8.046875 C 6.78125 -6.878906 7.160156 -5.984375 7.828125 -5.359375 C 8.492188 -4.734375 9.3125 -4.421875 10.28125 -4.421875 C 11.71875 -4.421875 12.71875 -5.03125 13.28125 -6.25 L 19.4375 -6.25 C 19.125 -5.007812 18.554688 -3.894531 17.734375 -2.90625 C 16.910156 -1.914062 15.878906 -1.140625 14.640625 -0.578125 C 13.398438 -0.015625 12.015625 0.265625 10.484375 0.265625 C 8.628906 0.265625 6.976562 -0.125 5.53125 -0.90625 C 4.09375 -1.695312 2.96875 -2.820312 2.15625 -4.28125 C 1.351562 -5.75 0.953125 -7.46875 0.953125 -9.4375 C 0.953125 -11.394531 1.347656 -13.101562 2.140625 -14.5625 C 2.941406 -16.03125 4.0625 -17.160156 5.5 -17.953125 C 6.945312 -18.742188 8.609375 -19.140625 10.484375 -19.140625 C 12.304688 -19.140625 13.925781 -18.753906 15.34375 -17.984375 C 16.769531 -17.222656 17.878906 -16.128906 18.671875 -14.703125 C 19.472656 -13.285156 19.875 -11.628906 19.875 -9.734375 Z M 13.96875 -11.265625 C 13.96875 -12.253906 13.628906 -13.039062 12.953125 -13.625 C 12.273438 -14.207031 11.429688 -14.5 10.421875 -14.5 C 9.441406 -14.5 8.617188 -14.21875 7.953125 -13.65625 C 7.296875 -13.09375 6.890625 -12.296875 6.734375 -11.265625 Z M 13.96875 -11.265625 "/></g></g></g><g fill="#000000" fill-opacity="1"><g transform="translate(41.453328, 134.811781)"><g><path d="M 0.953125 -9.4375 C 0.953125 -11.394531 1.347656 -13.101562 2.140625 -14.5625 C 2.941406 -16.03125 4.054688 -17.160156 5.484375 -17.953125 C 6.921875 -18.742188 8.566406 -19.140625 10.421875 -19.140625 C 12.785156 -19.140625 14.757812 -18.519531 16.34375 -17.28125 C 17.9375 -16.039062 18.976562 -14.289062 19.46875 -12.03125 L 13.328125 -12.03125 C 12.804688 -13.476562 11.800781 -14.203125 10.3125 -14.203125 C 9.25 -14.203125 8.398438 -13.789062 7.765625 -12.96875 C 7.140625 -12.144531 6.828125 -10.96875 6.828125 -9.4375 C 6.828125 -7.90625 7.140625 -6.726562 7.765625 -5.90625 C 8.398438 -5.082031 9.25 -4.671875 10.3125 -4.671875 C 11.800781 -4.671875 12.804688 -5.390625 13.328125 -6.828125 L 19.46875 -6.828125 C 18.976562 -4.617188 17.929688 -2.882812 16.328125 -1.625 C 14.734375 -0.363281 12.765625 0.265625 10.421875 0.265625 C 8.566406 0.265625 6.921875 -0.125 5.484375 -0.90625 C 4.054688 -1.695312 2.941406 -2.820312 2.140625 -4.28125 C 1.347656 -5.75 0.953125 -7.46875 0.953125 -9.4375 Z M 0.953125 -9.4375 "/></g></g></g><g fill="#000000" fill-opacity="1"><g transform="translate(61.897419, 134.811781)"><g><path d="M 10.6875 0.265625 C 8.832031 0.265625 7.164062 -0.125 5.6875 -0.90625 C 4.21875 -1.695312 3.0625 -2.820312 2.21875 -4.28125 C 1.375 -5.75 0.953125 -7.46875 0.953125 -9.4375 C 0.953125 -11.375 1.378906 -13.078125 2.234375 -14.546875 C 3.085938 -16.023438 4.257812 -17.160156 5.75 -17.953125 C 7.238281 -18.742188 8.90625 -19.140625 10.75 -19.140625 C 12.601562 -19.140625 14.269531 -18.742188 15.75 -17.953125 C 17.238281 -17.160156 18.410156 -16.023438 19.265625 -14.546875 C 20.128906 -13.078125 20.5625 -11.375 20.5625 -9.4375 C 20.5625 -7.5 20.125 -5.789062 19.25 -4.3125 C 18.382812 -2.832031 17.203125 -1.695312 15.703125 -0.90625 C 14.203125 -0.125 12.53125 0.265625 10.6875 0.265625 Z M 10.6875 -4.734375 C 11.789062 -4.734375 12.726562 -5.140625 13.5 -5.953125 C 14.28125 -6.765625 14.671875 -7.925781 14.671875 -9.4375 C 14.671875 -10.945312 14.289062 -12.109375 13.53125 -12.921875 C 12.78125 -13.734375 11.851562 -14.140625 10.75 -14.140625 C 9.625 -14.140625 8.6875 -13.738281 7.9375 -12.9375 C 7.195312 -12.132812 6.828125 -10.96875 6.828125 -9.4375 C 6.828125 -7.925781 7.191406 -6.765625 7.921875 -5.953125 C 8.660156 -5.140625 9.582031 -4.734375 10.6875 -4.734375 Z M 10.6875 -4.734375 "/></g></g></g><g fill="#000000" fill-opacity="1"><g transform="translate(83.422836, 134.811781)"><g><path d="M 13.59375 -19.0625 C 15.800781 -19.0625 17.5625 -18.347656 18.875 -16.921875 C 20.195312 -15.492188 20.859375 -13.523438 20.859375 -11.015625 L 20.859375 0 L 15.109375 0 L 15.109375 -10.25 C 15.109375 -11.507812 14.78125 -12.488281 14.125 -13.1875 C 13.476562 -13.882812 12.601562 -14.234375 11.5 -14.234375 C 10.394531 -14.234375 9.515625 -13.882812 8.859375 -13.1875 C 8.203125 -12.488281 7.875 -11.507812 7.875 -10.25 L 7.875 0 L 2.09375 0 L 2.09375 -18.875 L 7.875 -18.875 L 7.875 -16.359375 C 8.457031 -17.191406 9.242188 -17.847656 10.234375 -18.328125 C 11.234375 -18.816406 12.351562 -19.0625 13.59375 -19.0625 Z M 13.59375 -19.0625 "/></g></g></g><g fill="#000000" fill-opacity="1"><g transform="translate(106.198572, 134.811781)"><g><path d="M 0.953125 -9.46875 C 0.953125 -11.40625 1.316406 -13.101562 2.046875 -14.5625 C 2.773438 -16.03125 3.769531 -17.160156 5.03125 -17.953125 C 6.300781 -18.742188 7.710938 -19.140625 9.265625 -19.140625 C 10.503906 -19.140625 11.632812 -18.878906 12.65625 -18.359375 C 13.6875 -17.835938 14.492188 -17.140625 15.078125 -16.265625 L 15.078125 -25.015625 L 20.859375 -25.015625 L 20.859375 0 L 15.078125 0 L 15.078125 -2.703125 C 14.535156 -1.804688 13.765625 -1.085938 12.765625 -0.546875 C 11.765625 -0.00390625 10.597656 0.265625 9.265625 0.265625 C 7.710938 0.265625 6.300781 -0.128906 5.03125 -0.921875 C 3.769531 -1.722656 2.773438 -2.863281 2.046875 -4.34375 C 1.316406 -5.820312 0.953125 -7.53125 0.953125 -9.46875 Z M 15.078125 -9.4375 C 15.078125 -10.875 14.675781 -12.007812 13.875 -12.84375 C 13.082031 -13.675781 12.109375 -14.09375 10.953125 -14.09375 C 9.804688 -14.09375 8.832031 -13.679688 8.03125 -12.859375 C 7.226562 -12.035156 6.828125 -10.90625 6.828125 -9.46875 C 6.828125 -8.019531 7.226562 -6.875 8.03125 -6.03125 C 8.832031 -5.1875 9.804688 -4.765625 10.953125 -4.765625 C 12.109375 -4.765625 13.082031 -5.179688 13.875 -6.015625 C 14.675781 -6.847656 15.078125 -7.988281 15.078125 -9.4375 Z M 15.078125 -9.4375 "/></g></g></g><g fill="#f7941d" fill-opacity="1"><g transform="translate(129.171723, 134.811781)"><g><path d="M 1.109375 -11.90625 C 1.109375 -14.25 1.613281 -16.335938 2.625 -18.171875 C 3.644531 -20.015625 5.0625 -21.445312 6.875 -22.46875 C 8.695312 -23.488281 10.753906 -24 13.046875 -24 C 15.867188 -24 18.28125 -23.253906 20.28125 -21.765625 C 22.289062 -20.285156 23.632812 -18.257812 24.3125 -15.6875 L 17.953125 -15.6875 C 17.484375 -16.675781 16.8125 -17.429688 15.9375 -17.953125 C 15.070312 -18.472656 14.085938 -18.734375 12.984375 -18.734375 C 11.203125 -18.734375 9.757812 -18.113281 8.65625 -16.875 C 7.550781 -15.632812 7 -13.976562 7 -11.90625 C 7 -9.832031 7.550781 -8.175781 8.65625 -6.9375 C 9.757812 -5.695312 11.203125 -5.078125 12.984375 -5.078125 C 14.085938 -5.078125 15.070312 -5.332031 15.9375 -5.84375 C 16.8125 -6.363281 17.484375 -7.117188 17.953125 -8.109375 L 24.3125 -8.109375 C 23.632812 -5.546875 22.289062 -3.523438 20.28125 -2.046875 C 18.28125 -0.566406 15.867188 0.171875 13.046875 0.171875 C 10.753906 0.171875 8.695312 -0.335938 6.875 -1.359375 C 5.0625 -2.390625 3.644531 -3.816406 2.625 -5.640625 C 1.613281 -7.472656 1.109375 -9.5625 1.109375 -11.90625 Z M 1.109375 -11.90625 "/></g></g></g><g fill="#f7941d" fill-opacity="1"><g transform="translate(154.921141, 134.811781)"><g><path d="M 13.6875 -19.0625 C 15.851562 -19.0625 17.585938 -18.347656 18.890625 -16.921875 C 20.203125 -15.492188 20.859375 -13.523438 20.859375 -11.015625 L 20.859375 0 L 15.109375 0 L 15.109375 -10.25 C 15.109375 -11.507812 14.78125 -12.488281 14.125 -13.1875 C 13.476562 -13.882812 12.601562 -14.234375 11.5 -14.234375 C 10.394531 -14.234375 9.515625 -13.882812 8.859375 -13.1875 C 8.203125 -12.488281 7.875 -11.507812 7.875 -10.25 L 7.875 0 L 2.09375 0 L 2.09375 -25.015625 L 7.875 -25.015625 L 7.875 -16.328125 C 8.457031 -17.160156 9.253906 -17.820312 10.265625 -18.3125 C 11.285156 -18.8125 12.425781 -19.0625 13.6875 -19.0625 Z M 13.6875 -19.0625 "/></g></g></g><g fill="#f7941d" fill-opacity="1"><g transform="translate(177.696877, 134.811781)"><g><path d="M 0.953125 -9.46875 C 0.953125 -11.40625 1.316406 -13.101562 2.046875 -14.5625 C 2.773438 -16.03125 3.769531 -17.160156 5.03125 -17.953125 C 6.300781 -18.742188 7.710938 -19.140625 9.265625 -19.140625 C 10.597656 -19.140625 11.765625 -18.867188 12.765625 -18.328125 C 13.765625 -17.785156 14.535156 -17.078125 15.078125 -16.203125 L 15.078125 -18.875 L 20.859375 -18.875 L 20.859375 0 L 15.078125 0 L 15.078125 -2.671875 C 14.515625 -1.796875 13.726562 -1.085938 12.71875 -0.546875 C 11.71875 -0.00390625 10.554688 0.265625 9.234375 0.265625 C 7.703125 0.265625 6.300781 -0.128906 5.03125 -0.921875 C 3.769531 -1.722656 2.773438 -2.863281 2.046875 -4.34375 C 1.316406 -5.820312 0.953125 -7.53125 0.953125 -9.46875 Z M 15.078125 -9.4375 C 15.078125 -10.875 14.675781 -12.007812 13.875 -12.84375 C 13.082031 -13.675781 12.109375 -14.09375 10.953125 -14.09375 C 9.804688 -14.09375 8.832031 -13.679688 8.03125 -12.859375 C 7.226562 -12.035156 6.828125 -10.90625 6.828125 -9.46875 C 6.828125 -8.019531 7.226562 -6.875 8.03125 -6.03125 C 8.832031 -5.1875 9.804688 -4.765625 10.953125 -4.765625 C 12.109375 -4.765625 13.082031 -5.179688 13.875 -6.015625 C 14.675781 -6.847656 15.078125 -7.988281 15.078125 -9.4375 Z M 15.078125 -9.4375 "/></g></g></g><g fill="#f7941d" fill-opacity="1"><g transform="translate(200.641576, 134.811781)"><g><path d="M 13.59375 -19.0625 C 15.800781 -19.0625 17.5625 -18.347656 18.875 -16.921875 C 20.195312 -15.492188 20.859375 -13.523438 20.859375 -11.015625 L 20.859375 0 L 15.109375 0 L 15.109375 -10.25 C 15.109375 -11.507812 14.78125 -12.488281 14.125 -13.1875 C 13.476562 -13.882812 12.601562 -14.234375 11.5 -14.234375 C 10.394531 -14.234375 9.515625 -13.882812 8.859375 -13.1875 C 8.203125 -12.488281 7.875 -11.507812 7.875 -10.25 L 7.875 0 L 2.09375 0 L 2.09375 -18.875 L 7.875 -18.875 L 7.875 -16.359375 C 8.457031 -17.191406 9.242188 -17.847656 10.234375 -18.328125 C 11.234375 -18.816406 12.351562 -19.0625 13.59375 -19.0625 Z M 13.59375 -19.0625 "/></g></g></g><g fill="#f7941d" fill-opacity="1"><g transform="translate(223.417312, 134.811781)"><g><path d="M 0.953125 -9.4375 C 0.953125 -11.394531 1.347656 -13.101562 2.140625 -14.5625 C 2.941406 -16.03125 4.054688 -17.160156 5.484375 -17.953125 C 6.921875 -18.742188 8.566406 -19.140625 10.421875 -19.140625 C 12.785156 -19.140625 14.757812 -18.519531 16.34375 -17.28125 C 17.9375 -16.039062 18.976562 -14.289062 19.46875 -12.03125 L 13.328125 -12.03125 C 12.804688 -13.476562 11.800781 -14.203125 10.3125 -14.203125 C 9.25 -14.203125 8.398438 -13.789062 7.765625 -12.96875 C 7.140625 -12.144531 6.828125 -10.96875 6.828125 -9.4375 C 6.828125 -7.90625 7.140625 -6.726562 7.765625 -5.90625 C 8.398438 -5.082031 9.25 -4.671875 10.3125 -4.671875 C 11.800781 -4.671875 12.804688 -5.390625 13.328125 -6.828125 L 19.46875 -6.828125 C 18.976562 -4.617188 17.929688 -2.882812 16.328125 -1.625 C 14.734375 -0.363281 12.765625 0.265625 10.421875 0.265625 C 8.566406 0.265625 6.921875 -0.125 5.484375 -0.90625 C 4.054688 -1.695312 2.941406 -2.820312 2.140625 -4.28125 C 1.347656 -5.75 0.953125 -7.46875 0.953125 -9.4375 Z M 0.953125 -9.4375 "/></g></g></g><g fill="#f7941d" fill-opacity="1"><g transform="translate(243.861403, 134.811781)"><g><path d="M 19.875 -9.734375 C 19.875 -9.191406 19.84375 -8.628906 19.78125 -8.046875 L 6.6875 -8.046875 C 6.78125 -6.878906 7.160156 -5.984375 7.828125 -5.359375 C 8.492188 -4.734375 9.3125 -4.421875 10.28125 -4.421875 C 11.71875 -4.421875 12.71875 -5.03125 13.28125 -6.25 L 19.4375 -6.25 C 19.125 -5.007812 18.554688 -3.894531 17.734375 -2.90625 C 16.910156 -1.914062 15.878906 -1.140625 14.640625 -0.578125 C 13.398438 -0.015625 12.015625 0.265625 10.484375 0.265625 C 8.628906 0.265625 6.976562 -0.125 5.53125 -0.90625 C 4.09375 -1.695312 2.96875 -2.820312 2.15625 -4.28125 C 1.351562 -5.75 0.953125 -7.46875 0.953125 -9.4375 C 0.953125 -11.394531 1.347656 -13.101562 2.140625 -14.5625 C 2.941406 -16.03125 4.0625 -17.160156 5.5 -17.953125 C 6.945312 -18.742188 8.609375 -19.140625 10.484375 -19.140625 C 12.304688 -19.140625 13.925781 -18.753906 15.34375 -17.984375 C 16.769531 -17.222656 17.878906 -16.128906 18.671875 -14.703125 C 19.472656 -13.285156 19.875 -11.628906 19.875 -9.734375 Z M 13.96875 -11.265625 C 13.96875 -12.253906 13.628906 -13.039062 12.953125 -13.625 C 12.273438 -14.207031 11.429688 -14.5 10.421875 -14.5 C 9.441406 -14.5 8.617188 -14.21875 7.953125 -13.65625 C 7.296875 -13.09375 6.890625 -12.296875 6.734375 -11.265625 Z M 13.96875 -11.265625 "/></g></g></g><g clip-path="url(#0335e07be3)"><path fill="#000000" d="M 299.96875 130.277344 C 299.359375 132.429688 298.246094 132.570312 296.796875 131.882812 C 293.992188 130.554688 291.097656 129.394531 288.402344 127.875 C 270.25 117.636719 252.164062 107.273438 234.003906 97.046875 C 222.21875 90.414062 210.390625 83.851562 198.480469 77.445312 C 191.757812 73.828125 184.496094 71.695312 176.808594 71.933594 C 171.074219 72.109375 165.304688 72.542969 159.648438 73.460938 C 148.9375 75.199219 138.28125 77.292969 127.632812 79.378906 C 117.519531 81.359375 107.410156 83.359375 97.363281 85.636719 C 85.363281 88.351562 73.414062 91.308594 61.480469 94.296875 C 57.84375 95.210938 54.320312 96.582031 50.816406 98.242188 C 58.335938 97.511719 65.859375 96.8125 73.375 96.046875 C 81.070312 95.261719 88.75 94.375 96.449219 93.609375 C 103.96875 92.863281 111.476562 91.847656 119.039062 91.714844 C 119.097656 91.933594 119.152344 92.152344 119.210938 92.375 C 118.59375 92.640625 117.996094 93.023438 117.347656 93.148438 C 109.855469 94.613281 102.359375 96.09375 94.847656 97.460938 C 88.964844 98.53125 83.074219 99.582031 77.15625 100.417969 C 66.101562 101.980469 55.066406 103.78125 43.871094 104.074219 C 39.578125 104.1875 38.242188 103.351562 36.8125 99.964844 C 35.980469 97.984375 36.089844 97.105469 37.996094 96.148438 C 40.558594 94.855469 43.210938 93.664062 45.949219 92.820312 C 63.445312 87.445312 81.160156 82.886719 98.976562 78.710938 C 105.125 77.269531 111.296875 75.910156 117.476562 74.609375 C 126.257812 72.765625 135.019531 70.769531 143.863281 69.28125 C 154.328125 67.519531 164.777344 65.628906 175.421875 65.007812 C 185.75 64.40625 195.191406 67.035156 204.027344 72.050781 C 213.761719 77.582031 223.414062 83.269531 233.003906 89.046875 C 251.808594 100.375 270.558594 111.789062 289.300781 123.226562 C 292.960938 125.460938 296.464844 127.953125 299.96875 130.277344 Z M 299.96875 130.277344 " fill-opacity="1" fill-rule="nonzero"/></g><g clip-path="url(#0b5144f98d)"><path fill="#000000" d="M 174.316406 21.214844 C 173.878906 21.054688 173.386719 20.875 172.664062 20.613281 C 175.414062 13.828125 180.058594 9.273438 186.703125 6.796875 C 189.746094 5.664062 192.925781 5.1875 196.15625 5.996094 C 205.207031 8.261719 209.605469 18.335938 203.328125 27.058594 C 201.597656 29.460938 199.429688 31.59375 197.226562 33.585938 C 189.675781 40.40625 187.695312 42.699219 182.722656 51.128906 C 180.144531 50.640625 180.027344 50.488281 180.371094 48.382812 C 181.242188 43.050781 183.933594 38.648438 187.511719 34.761719 C 190.132812 31.917969 192.980469 29.28125 195.640625 26.472656 C 198.058594 23.921875 199.769531 21.039062 199.675781 17.316406 C 199.546875 12.167969 194.695312 8.007812 189.582031 8.746094 C 185.539062 9.332031 182.375 11.503906 179.726562 14.429688 C 177.878906 16.464844 176.28125 18.730469 174.316406 21.214844 Z M 174.316406 21.214844 " fill-opacity="1" fill-rule="nonzero"/></g></svg>